<?xml version="1.0" encoding="UTF-8"?>
<svg width="353px" height="79px" viewBox="0 0 353 79" version="1.1" xmlns="http://www.w3.org/2000/svg" xmlns:xlink="http://www.w3.org/1999/xlink">
    <!-- Generator: Sketch 51.2 (57519) - http://www.bohemiancoding.com/sketch -->
    <title>wimet-logo</title>
    <desc>Created with Sketch.</desc>
    <defs></defs>
    <g id="Page-1" stroke="none" stroke-width="1" fill="none" fill-rule="evenodd">
        <g id="Desktop-HD" transform="translate(-1084.000000, -159.000000)">
            <g id="wimet-logo" transform="translate(1084.000000, 159.000000)">
                <g id="wordmark" transform="translate(131.000000, 5.000000)" fill="#253852">
                    <path d="M49.2749398,16.5950909 C50.3281498,16.5950909 51.1180456,16.8704215 51.6446506,17.4210909 C52.1712556,17.9717603 52.4345542,18.7226619 52.4345542,19.6738182 C52.4345542,20.4747919 52.3091739,21.2006634 52.0584096,21.8514545 L40.9245301,55.1918182 C40.6737658,55.8926702 40.2223968,56.4808764 39.5704096,56.9564545 C38.9184224,57.4320327 38.1912169,57.6698182 37.3887711,57.6698182 C36.5361724,57.6698182 35.7713528,57.4320327 35.0942892,56.9564545 C34.4172255,56.4808764 33.9783946,55.8926702 33.7777831,55.1918182 L26.4053494,27.9338182 L18.6567711,55.1918182 C18.4060068,55.8926702 17.9420998,56.4808764 17.2650361,56.9564545 C16.5879725,57.4320327 15.8482289,57.6698182 15.0457831,57.6698182 C14.2433374,57.6698182 13.5035937,57.4320327 12.8265301,56.9564545 C12.1494665,56.4808764 11.6855595,55.8926702 11.4347952,55.1918182 L0.300915663,21.8514545 C0.100304218,21.2006634 0,20.4998219 0,19.7489091 C0,17.6463531 1.05319429,16.5950909 3.15961446,16.5950909 C4.11251882,16.5950909 4.90241454,16.8704215 5.5293253,17.4210909 C6.15623607,17.9717603 6.67029518,18.8478122 7.07151807,20.0492727 L15.196241,45.3549091 L22.8695904,19.4485455 C23.1203547,18.5975109 23.5591856,17.9091844 24.1860964,17.3835455 C24.8130072,16.8579065 25.6279789,16.5950909 26.6310361,16.5950909 C27.5839405,16.5950909 28.3738362,16.8579065 29.000747,17.3835455 C29.6276578,17.9091844 30.0664887,18.5975109 30.317253,19.4485455 L37.0878554,45.8805455 L45.3630361,20.0492727 C46.0651762,17.7464733 47.369131,16.5950909 49.2749398,16.5950909 Z M61.0858795,20.4247273 C61.0858795,19.2733276 61.4494823,18.3472156 62.1766988,17.6463636 C62.9039153,16.9455116 63.8191913,16.5950909 64.9225542,16.5950909 C66.07607,16.5950909 67.003884,16.9455116 67.7060241,17.6463636 C68.4081642,18.3472156 68.7592289,19.2733276 68.7592289,20.4247273 L68.7592289,53.8401818 C68.7592289,54.9415207 68.4081642,55.8551176 67.7060241,56.581 C67.003884,57.3068824 66.07607,57.6698182 64.9225542,57.6698182 C63.8191913,57.6698182 62.9039153,57.3068824 62.1766988,56.581 C61.4494823,55.8551176 61.0858795,54.9415207 61.0858795,53.8401818 L61.0858795,20.4247273 Z M126.309349,16.2196364 C130.672648,16.2196364 134.195834,17.6463494 136.879012,20.4998182 C139.56219,23.353287 140.903759,27.3330654 140.903759,32.4392727 L140.903759,53.9152727 C140.903759,55.0166116 140.552694,55.9302085 139.850554,56.6560909 C139.148414,57.3819733 138.2206,57.7449091 137.067084,57.7449091 C135.963721,57.7449091 135.048445,57.3819733 134.321229,56.6560909 C133.594012,55.9302085 133.23041,55.0166116 133.23041,53.9152727 L133.23041,32.4392727 C133.23041,29.3855605 132.46559,27.0702806 130.935928,25.4933636 C129.406265,23.9164467 127.362567,23.128 124.804771,23.128 C122.196822,23.128 120.05282,24.0290819 118.372699,25.8312727 C116.692578,27.6334636 115.85253,29.9362284 115.85253,32.7396364 L115.85253,53.9152727 C115.85253,55.0166116 115.501465,55.9302085 114.799325,56.6560909 C114.097185,57.3819733 113.169371,57.7449091 112.015855,57.7449091 C110.912492,57.7449091 109.997216,57.3819733 109.27,56.6560909 C108.542784,55.9302085 108.179181,55.0166116 108.179181,53.9152727 L108.179181,32.4392727 C108.179181,29.3855605 107.414361,27.0702806 105.884699,25.4933636 C104.355037,23.9164467 102.311338,23.128 99.7535422,23.128 C97.0954405,23.128 94.9263618,24.0290819 93.246241,25.8312727 C91.5661201,27.6334636 90.7260723,29.9362284 90.7260723,32.7396364 L90.7260723,53.9152727 C90.7260723,55.0166116 90.3750075,55.9302085 89.6728675,56.6560909 C88.9707274,57.3819733 88.0429134,57.7449091 86.8893976,57.7449091 C85.7860346,57.7449091 84.8707587,57.3819733 84.1435422,56.6560909 C83.4163257,55.9302085 83.0527229,55.0166116 83.0527229,53.9152727 L83.0527229,20.4998182 C83.0527229,19.3484185 83.4163257,18.4223065 84.1435422,17.7214545 C84.8707587,17.0206026 85.7860346,16.6701818 86.8893976,16.6701818 C87.9927605,16.6701818 88.8954985,17.0080875 89.5976386,17.6839091 C90.2997786,18.3597307 90.6759194,19.2482975 90.7260723,20.3496364 C92.0300467,19.0480541 93.5847621,18.034337 95.3902651,17.3084545 C97.1957681,16.5825721 99.1517003,16.2196364 101.25812,16.2196364 C103.815916,16.2196364 106.110375,16.7327524 108.141566,17.759 C110.172757,18.7852476 111.840315,20.2495056 113.144289,22.1518182 C114.648875,20.2995665 116.529579,18.8478234 118.786458,17.7965455 C121.043337,16.7452675 123.550942,16.2196364 126.309349,16.2196364 Z M190.554843,36.4941818 C190.554843,37.4453381 190.228855,38.2337848 189.576867,38.8595455 C188.92488,39.4853062 188.09737,39.7981818 187.094313,39.7981818 L158.507325,39.7981818 C159.059007,43.3024418 160.651336,46.1308377 163.284361,48.2834545 C165.917387,50.4360714 169.13966,51.5123636 172.951277,51.5123636 C174.455863,51.5123636 176.023116,51.2370331 177.653084,50.6863636 C179.283052,50.1356942 180.624621,49.4598828 181.677831,48.6589091 C182.379971,48.1082397 183.207481,47.8329091 184.160386,47.8329091 C185.11329,47.8329091 185.865572,48.0832096 186.417253,48.5838182 C187.320005,49.334731 187.771373,50.1857528 187.771373,51.1369091 C187.771373,52.0380045 187.370157,52.7889061 186.567711,53.3896364 C184.862514,54.7412795 182.743587,55.8426018 180.210867,56.6936364 C177.678148,57.5446709 175.258309,57.9701818 172.951277,57.9701818 C168.838742,57.9701818 165.152562,57.0816149 161.892627,55.3044545 C158.632691,53.5272941 156.087471,51.061834 154.256892,47.908 C152.426312,44.754166 151.511036,41.1748685 151.511036,37.17 C151.511036,33.1651315 152.37616,29.5733189 154.106434,26.3944545 C155.836707,23.2155902 158.244009,20.7376149 161.32841,18.9604545 C164.412811,17.1832941 167.91092,16.2947273 171.822843,16.2947273 C175.684614,16.2947273 179.019729,17.1457491 181.828289,18.8478182 C184.636849,20.5498873 186.79339,22.9277423 188.297976,25.9814545 C189.802562,29.0351668 190.554843,32.5393742 190.554843,36.4941818 Z M171.822843,22.7525455 C168.161685,22.7525455 165.190172,23.7537476 162.908217,25.7561818 C160.626262,27.7586161 159.184389,30.4368317 158.582554,33.7909091 L183.633783,33.7909091 C183.182407,30.4368317 181.928605,27.7586161 179.872337,25.7561818 C177.81607,23.7537476 175.132932,22.7525455 171.822843,22.7525455 Z M217.86294,50.1607273 C218.765691,50.1607273 219.530511,50.511148 220.157422,51.212 C220.784332,51.912852 221.097783,52.8139339 221.097783,53.9152727 C221.097783,55.0166116 220.684028,55.9176935 219.856506,56.6185455 C219.028984,57.3193974 217.963251,57.6698182 216.659277,57.6698182 L215.305157,57.6698182 C212.847666,57.6698182 210.60336,57.0315518 208.572169,55.755 C206.540978,54.4784482 204.948648,52.7388595 203.795133,50.5361818 C202.641617,48.3335041 202.064867,45.8555289 202.064867,43.1021818 L202.064867,24.5547273 L202.064867,18.0969091 L202.064867,7.28381818 C202.064867,6.18247934 202.415932,5.28139744 203.118072,4.58054545 C203.820212,3.87969347 204.72295,3.52927273 205.826313,3.52927273 C206.929676,3.52927273 207.832414,3.87969347 208.534554,4.58054545 C209.236694,5.28139744 209.587759,6.18247934 209.587759,7.28381818 L209.587759,18.0969091 L215.982217,18.0969091 C217.035427,18.0969091 217.888013,18.3972697 218.54,18.998 C219.191987,19.5987303 219.517976,20.399692 219.517976,21.4009091 C219.517976,22.3020045 219.191987,23.0529061 218.54,23.6536364 C217.888013,24.2543666 217.035427,24.5547273 215.982217,24.5547273 L209.587759,24.5547273 L209.587759,43.1021818 C209.587759,45.1046161 210.139432,46.7816296 211.242795,48.1332727 C212.346158,49.4849158 213.700265,50.1607273 215.305157,50.1607273 L217.86294,50.1607273 Z" id="wimet"></path>
                    <path d="M64.9225542,0 C66.2766815,0 67.442718,0.488086028 68.4206988,1.46427273 C69.3986796,2.44045943 69.8876627,3.60435688 69.8876627,4.956 C69.8876627,6.30764312 69.3986796,7.47154057 68.4206988,8.44772727 C67.442718,9.42391397 66.2766815,9.912 64.9225542,9.912 C63.568427,9.912 62.4023904,9.42391397 61.4244096,8.44772727 C60.4464288,7.47154057 59.9574458,6.30764312 59.9574458,4.956 C59.9574458,3.60435688 60.4464288,2.44045943 61.4244096,1.46427273 C62.4023904,0.488086028 63.568427,0 64.9225542,0 Z" id="Path"></path>
                </g>
                <g id="iso" fill="#F45487" fill-rule="nonzero">
                    <path d="M78.7531662,35.3344629 C74.7900285,28.5301513 72.4109503,23.0328241 72.4109503,20.1539062 C72.4109503,13.3495945 77.9611364,8.11277611 84.566366,8.11277611 C91.437598,8.11277611 96.7247706,13.6101033 96.7247706,20.1539062 C96.7247706,23.8202711 92.7601383,32.1950362 86.4179224,41.8812261 L84.3033524,45.2826418 C82.9823064,42.4037238 81.1322443,39.000828 78.7531662,35.3344629 M36.2047279,70.6748466 C29.3349903,70.6748466 24.0493122,65.1775194 24.0493122,58.6322364 C24.0493122,55.7533184 26.426896,50.2559911 30.3915282,43.4501994 C31.1850523,42.1402547 32.7706063,39.2642971 32.7706063,39.2642971 C32.7706063,39.2642971 33.8271442,37.6908833 34.3546659,36.9093569 L36.2047279,34.0274785 L38.05479,36.9093569 C38.5838061,37.6908833 39.1128222,38.4783303 39.6418384,39.2642971 C40.4338682,40.5727615 41.2258979,41.8812261 42.2839302,43.4501994 C46.247068,50.2559911 48.6261461,55.7533184 48.6261461,58.6322364 C48.3631324,65.1775194 43.0774544,70.6748466 36.2047279,70.6748466 M104.65254,19.8904371 C104.65254,8.9002231 95.6667383,0 84.566366,0 C73.4674882,0 64.4831803,8.9002231 64.4831803,19.8904371 C64.4831803,23.5597624 66.5962561,30.8880518 74.7900285,43.7121884 C78.4901525,50.2559911 80.6032282,55.4928096 80.6032282,58.3717276 C80.6032282,65.1775194 75.0545364,70.4113775 68.4463182,70.4113775 C61.5750861,70.4113775 56.289408,64.9140503 56.289408,58.3717276 C56.289408,55.4928096 58.4054725,50.2559911 62.1041022,43.7121884 C63.4266425,41.6236776 64.7476884,39.2642971 65.8042263,37.4303745 C63.9541642,34.2909477 62.6331183,31.1456003 61.8395941,28.5301513 C60.7830563,30.6245827 59.7265184,32.7204942 58.4054725,35.0739542 C57.6119483,36.3824187 54.9683621,40.8332703 54.9683621,40.8332703 C54.4423347,41.6192371 54.9683621,40.8332703 54.4408403,41.6192371 L52.5892838,44.4981552 L50.7407163,41.6192371 C50.2117001,40.8332703 49.682684,40.0487836 49.1536679,39.2642971 C48.3631324,37.9528722 47.5696082,36.6458878 46.5130705,35.0739542 C42.5484382,28.2696426 40.1693601,22.7723154 40.1693601,19.8904371 C40.1693601,13.0861254 45.7195463,7.85226734 52.3262703,7.85226734 C56.0263943,7.85226734 59.1975022,9.42272081 61.3120724,11.777661 C62.1041022,9.16221203 63.4266425,6.80579175 65.2752101,4.70988025 C61.8395941,1.83096224 57.3459459,0 52.3262703,0 C45.7195463,0 39.9063464,3.1423871 36.2047279,8.11277611 C32.5060982,3.1423871 26.691404,0 20.08468,0 C8.98430777,0.260508776 0,9.16221203 0,19.8904371 C0,23.8202711 2.11307571,31.4120297 11.627894,45.8051395 L14.0054777,49.4715045 C14.7990019,46.8530953 16.1215423,44.2376464 17.7070963,41.0952593 C11.627894,31.6725385 7.66475625,23.5597624 7.66475625,19.8904371 C7.66475625,13.0861254 13.2149424,7.85226734 19.8201719,7.85226734 C26.691404,7.85226734 31.9770821,13.3495945 31.9770821,19.8904371 C31.9770821,22.7723154 29.598004,28.2696426 25.6348661,35.0739542 C17.4425882,47.901051 15.8570342,54.7053627 15.8570342,58.3717276 C15.8570342,69.3634217 24.8428364,78.2636448 35.9417143,78.2636448 C42.5484382,78.2636448 48.3631324,75.1227379 52.0632566,70.1508687 C55.7618863,75.1227379 61.5750861,78.2636448 68.1833045,78.2636448 C79.2821824,78.2636448 88.2679845,69.3634217 88.2679845,58.3717276 C88.2679845,57.325252 88.001982,55.7533184 87.4744603,53.658887 L92.7601383,45.8051395 C102.539465,31.4120297 104.65254,23.8202711 104.65254,19.8904371" id="Fill-1"></path>
                    <path d="M88.6970006,19.9253936 C88.6970006,17.8339226 86.8469387,16 84.7323685,16 C82.6177985,16 80.7692308,17.8339226 80.7692308,19.9253936 C80.7692308,22.0213051 82.6177985,23.8552277 84.7323685,23.8552277 C87.1114467,23.8552277 88.6970006,22.0213051 88.6970006,19.9253936" id="Fill-4"></path>
                </g>
            </g>
        </g>
    </g>
</svg>